<svg id="performance" xmlns="http://www.w3.org/2000/svg" xmlns:xlink="http://www.w3.org/1999/xlink" width="45" height="45" viewBox="0 0 45 45">
  <defs>
    <linearGradient id="linear-gradient" x1="0.5" x2="0.5" y2="1" gradientUnits="objectBoundingBox">
      <stop offset="0" stop-color="#f07229"/>
      <stop offset="1" stop-color="#ff9953"/>
    </linearGradient>
  </defs>
  <path id="Path_33" data-name="Path 33" d="M43.682,151.816H42.275v-30.5A1.318,1.318,0,0,0,40.957,120H35.684a1.318,1.318,0,0,0-1.318,1.318v30.5H31.729V126.592a1.318,1.318,0,0,0-1.318-1.318H25.137a1.318,1.318,0,0,0-1.318,1.318v25.225H21.182V134.5a1.318,1.318,0,0,0-1.318-1.318H14.59a1.318,1.318,0,0,0-1.318,1.318v17.314H10.635v-9.4a1.318,1.318,0,0,0-1.318-1.318H4.043a1.318,1.318,0,0,0-1.318,1.318v9.4H1.318a1.318,1.318,0,0,0,0,2.637H43.682a1.318,1.318,0,0,0,0-2.637ZM37,122.637h2.637v29.18H37ZM26.455,127.91h2.637v23.906H26.455Zm-10.547,7.91h2.637v16H15.908ZM5.361,143.73H8v8.086H5.361Z" transform="translate(0 -109.453)" fill="url(#linear-gradient)"/>
  <path id="Path_34" data-name="Path 34" d="M61.318,2.637H71.953a1.318,1.318,0,0,0,0-2.637H61.318a1.318,1.318,0,0,0,0,2.637Z" transform="translate(-54.727)" fill="url(#linear-gradient)"/>
  <circle id="Ellipse_9" data-name="Ellipse 9" cx="1" cy="1" r="1" transform="translate(0.5)" fill="url(#linear-gradient)"/>
  <path id="Path_35" data-name="Path 35" d="M61.318,62.637H71.953a1.318,1.318,0,0,0,0-2.637H61.318a1.318,1.318,0,0,0,0,2.637Z" transform="translate(-54.727 -54.727)" fill="url(#linear-gradient)"/>
  <ellipse id="Ellipse_10" data-name="Ellipse 10" cx="1" cy="1.5" rx="1" ry="1.5" transform="translate(0.5 5)" fill="url(#linear-gradient)"/>
  <path id="Path_36" data-name="Path 36" d="M61.318,122.637H71.953a1.318,1.318,0,0,0,0-2.637H61.318a1.318,1.318,0,0,0,0,2.637Z" transform="translate(-54.727 -109.453)" fill="url(#linear-gradient)"/>
  <circle id="Ellipse_11" data-name="Ellipse 11" cx="1" cy="1" r="1" transform="translate(0.5 11)" fill="url(#linear-gradient)"/>
</svg>
