<svg xmlns="http://www.w3.org/2000/svg" xmlns:xlink="http://www.w3.org/1999/xlink" width="55.134" height="43.188" viewBox="0 0 55.134 43.188">
  <defs>
    <linearGradient id="linear-gradient" x1="0.5" x2="0.5" y2="1" gradientUnits="objectBoundingBox">
      <stop offset="0" stop-color="#f07229"/>
      <stop offset="1" stop-color="#ff9953"/>
    </linearGradient>
  </defs>
  <g id="devices" transform="translate(0 -55.467)">
    <g id="Group_12" data-name="Group 12" transform="translate(0 55.467)">
      <path id="Path_10" data-name="Path 10" d="M52.285,76.6h-6.34V60.061a4.6,4.6,0,0,0-4.595-4.594H13.783a4.6,4.6,0,0,0-4.595,4.595v5.513H4.148A4.152,4.152,0,0,0,0,69.723V94.507a4.152,4.152,0,0,0,4.148,4.148H18.824A4.141,4.141,0,0,0,22.715,95.9H38.594a.919.919,0,0,0,.919-.919V93.142a2.757,2.757,0,0,0-2.757-2.757H34V86.709H41.35v9.1A2.849,2.849,0,0,0,44.2,98.655h8.086a2.849,2.849,0,0,0,2.849-2.849V79.45A2.848,2.848,0,0,0,52.285,76.6ZM21.135,94.507a2.312,2.312,0,0,1-2.31,2.31H4.148a2.312,2.312,0,0,1-2.31-2.31v-.447h19.3v.447Zm0-2.284H1.838V72.007h19.3Zm0-22.053H1.838v-.447a2.312,2.312,0,0,1,2.31-2.31H18.824a2.312,2.312,0,0,1,2.31,2.31v.447ZM36.756,92.223a.919.919,0,0,1,.919.919v.919h-14.7V92.223ZM22.972,90.385V86.709h9.189v3.676ZM41.35,84.872H22.972V82.115H41.35Zm0-5.421v.827H22.972V69.723a4.152,4.152,0,0,0-4.148-4.148h-7.8V60.062A2.757,2.757,0,0,1,13.783,57.3H41.35a2.757,2.757,0,0,1,2.757,2.757V76.611A2.849,2.849,0,0,0,41.35,79.45ZM53.3,95.806a1.011,1.011,0,0,1-1.011,1.011H44.2a1.011,1.011,0,0,1-1.011-1.011v-.827H53.3Zm0-2.665H43.188V82.115H53.3Zm0-12.864H43.188V79.45A1.011,1.011,0,0,1,44.2,78.439h8.086A1.011,1.011,0,0,1,53.3,79.45Z" transform="translate(0 -55.467)" fill="url(#linear-gradient)"/>
    </g>
  </g>
</svg>
