<svg xmlns="http://www.w3.org/2000/svg" xmlns:xlink="http://www.w3.org/1999/xlink" width="46.071" height="45" viewBox="0 0 46.071 45">
  <defs>
    <linearGradient id="linear-gradient" x1="0.5" x2="0.5" y2="1" gradientUnits="objectBoundingBox">
      <stop offset="0" stop-color="#f07229"/>
      <stop offset="1" stop-color="#ff9953"/>
    </linearGradient>
  </defs>
  <g id="noun_digital_1060211" transform="translate(-7 -8)">
    <g id="Group_14" data-name="Group 14" transform="translate(7 8)">
      <path id="Path_21" data-name="Path 21" d="M75.429,8a6.429,6.429,0,1,0,6.429,6.429A6.447,6.447,0,0,0,75.429,8Zm0,8.571a2.143,2.143,0,1,1,2.143-2.143A2.149,2.149,0,0,1,75.429,16.571Z" transform="translate(-35.786 -8)" fill="url(#linear-gradient)"/>
      <path id="Path_22" data-name="Path 22" d="M61.036,24.071a6.58,6.58,0,0,0-2.893.7l-7.821-7.821a6.623,6.623,0,0,0,.536-2.518,6.446,6.446,0,1,0-3.429,5.679L55.2,27.875a6.088,6.088,0,0,0-.589,2.625,6.429,6.429,0,1,0,6.429-6.429Zm-18.75-9.643a2.143,2.143,0,1,1,2.143,2.143A2.149,2.149,0,0,1,42.286,14.429Zm18.75,18.214A2.143,2.143,0,1,1,63.179,30.5,2.149,2.149,0,0,1,61.036,32.643Z" transform="translate(-21.393 -8)" fill="url(#linear-gradient)"/>
      <path id="Path_23" data-name="Path 23" d="M50.857,44.429a6.429,6.429,0,1,0-6.429,6.429A6.447,6.447,0,0,0,50.857,44.429Zm-8.571,0a2.143,2.143,0,1,1,2.143,2.143A2.149,2.149,0,0,1,42.286,44.429Z" transform="translate(-21.393 -21.929)" fill="url(#linear-gradient)"/>
      <path id="Path_24" data-name="Path 24" d="M13.429,80.857A6.429,6.429,0,1,0,7,74.429,6.447,6.447,0,0,0,13.429,80.857Zm0-8.571a2.143,2.143,0,1,1-2.143,2.143A2.149,2.149,0,0,1,13.429,72.286Z" transform="translate(-7 -35.857)" fill="url(#linear-gradient)"/>
      <path id="Path_25" data-name="Path 25" d="M46.643,40.143a6.431,6.431,0,0,0-6.054,4.286h-4.5a6.419,6.419,0,0,0-10.179-2.786l-7.339-7.286a6.422,6.422,0,0,0-3-9.911V20.482a6.429,6.429,0,1,0-4.286,0v3.964a6.424,6.424,0,0,0,2.143,12.482,6.777,6.777,0,0,0,1.5-.161l8.786,8.786a5.933,5.933,0,0,0-.107,1.018,6.424,6.424,0,0,0,12.482,2.143h4.5a6.426,6.426,0,1,0,6.054-8.571ZM13.429,12.286a2.143,2.143,0,1,1-2.143,2.143A2.149,2.149,0,0,1,13.429,12.286ZM11.286,30.5a2.143,2.143,0,1,1,2.143,2.143A2.149,2.149,0,0,1,11.286,30.5Zm18.75,18.214a2.143,2.143,0,1,1,2.143-2.143A2.149,2.149,0,0,1,30.036,48.714Zm16.607,0a2.143,2.143,0,1,1,2.143-2.143A2.149,2.149,0,0,1,46.643,48.714Z" transform="translate(-7 -8)" fill="url(#linear-gradient)"/>
    </g>
  </g>
</svg>
