<svg xmlns="http://www.w3.org/2000/svg" xmlns:xlink="http://www.w3.org/1999/xlink" width="48.222" height="45" viewBox="0 0 48.222 45">
  <defs>
    <linearGradient id="linear-gradient" x1="0.5" x2="0.5" y2="1" gradientUnits="objectBoundingBox">
      <stop offset="0" stop-color="#f07229"/>
      <stop offset="1" stop-color="#ff9953"/>
    </linearGradient>
  </defs>
  <g id="noun_User_Experience_497415" data-name="noun_User Experience_497415" transform="translate(-18.954 -15.101)">
    <g id="Group_13" data-name="Group 13" transform="translate(18.954 15.101)">
      <path id="Path_18" data-name="Path 18" d="M93.75,47.527Z" transform="translate(-45.528 -25.026)" fill="url(#linear-gradient)"/>
      <path id="Path_19" data-name="Path 19" d="M52.038,37.037A2.621,2.621,0,0,0,49.43,34.6H40.816a4.48,4.48,0,0,0-4.1,2.69c-.039.09-.075.181-.109.273l-.178.482.362.364c.1.1.247.233.413.373v2.647L35.3,48h1.892v3.935a2.2,2.2,0,0,0,2.2,2.2h6.628a3.31,3.31,0,0,0,3.262-2.8h2.071A2.5,2.5,0,0,0,53.718,49.1a67.656,67.656,0,0,0,1.242-8.5A3.649,3.649,0,0,0,52.038,37.037Zm-11.222-.825h8.613a1.015,1.015,0,0,1,.977.753h-1.6a3.635,3.635,0,0,0-2.778,1.292c-4.111,1.56-6.625.231-7.691-.618A2.865,2.865,0,0,1,40.816,36.212Zm5.2,16.3H39.385a.584.584,0,0,1-.584-.583V46.385H37.442l1.338-4.617L38.8,39.8a8.32,8.32,0,0,0,3.625.8,10.892,10.892,0,0,0,2.764-.378,3.609,3.609,0,0,0-.021.385V47.6h2.244a2.072,2.072,0,0,0,.3.536v2.679A1.7,1.7,0,0,1,46.013,52.516ZM48.8,46.2V43.9a.876.876,0,1,1,1.751,0,.853.853,0,0,1-.077.36l-.379.814c-.273.583-.569,1.219-.783,1.7a1.062,1.062,0,0,1-.22.368.356.356,0,0,1-.083.006h-.02S48.8,46.978,48.8,46.2Zm3.339,2.585c-.044.22-.234.937-.792.937H49.327v-.98a1.937,1.937,0,0,0,1.458-1.307c.21-.474.5-1.1.77-1.673l.382-.821a2.453,2.453,0,0,0,.226-1.035,2.487,2.487,0,1,0-4.975,0v2.086h-.409V40.606a2.032,2.032,0,0,1,2.029-2.03h2.509a2.032,2.032,0,0,1,2.031,2.03A65.153,65.153,0,0,1,52.138,48.781Z" transform="translate(-24.76 -22.029)" fill="url(#linear-gradient)"/>
      <path id="Path_20" data-name="Path 20" d="M56,43.041V32.159a3.956,3.956,0,1,0-3.767-6.618l-9.466-5.376a3.953,3.953,0,1,0-7.572.052L25.82,25.65a3.957,3.957,0,1,0-3.753,6.532V43.016a3.959,3.959,0,1,0,3.674,6.592l9.437,5.432a3.955,3.955,0,1,0,7.6.07l9.566-5.339A3.951,3.951,0,1,0,56,43.041ZM54.018,26.578a2.022,2.022,0,0,1,2.761.739,2.022,2.022,0,0,1-1.748,3.031,2.021,2.021,0,0,1-1.013-3.77ZM38.97,17.036a2.02,2.02,0,1,1-2.019,2.021A2.023,2.023,0,0,1,38.97,17.036ZM20.958,28.851a2.008,2.008,0,0,1,.2-1.532,2.021,2.021,0,1,1-.2,1.532Zm2.959,19.772a2.018,2.018,0,1,1,.944-1.227A2.019,2.019,0,0,1,23.917,48.623ZM38.97,58.168a2.021,2.021,0,1,1,2.021-2.022A2.022,2.022,0,0,1,38.97,58.168Zm0-5.975a3.938,3.938,0,0,0-2.814,1.181l-9.443-5.436c0-.014.012-.027.015-.041A3.944,3.944,0,0,0,24,43.078V32.125a3.939,3.939,0,0,0,2.738-4.77L36.2,21.87a3.943,3.943,0,0,0,5.584-.037l9.462,5.374a3.939,3.939,0,0,0,2.819,4.951V43.045a3.938,3.938,0,0,0-2.772,5.1l-9.459,5.28A3.94,3.94,0,0,0,38.97,52.192Zm16.06-3.3a2.022,2.022,0,1,1,2.02-2.019A2.023,2.023,0,0,1,55.03,48.895Z" transform="translate(-18.954 -15.101)" fill="url(#linear-gradient)"/>
      <circle id="Ellipse_8" data-name="Ellipse 8" cx="1.117" cy="1.117" r="1.117" transform="translate(14.891 20.281)" fill="url(#linear-gradient)"/>
    </g>
  </g>
</svg>
