<svg id="facebook" xmlns="http://www.w3.org/2000/svg" width="36" height="36" viewBox="0 0 36 36">
  <path id="Path_39" data-name="Path 39" d="M291.708,508.668q-.425.069-.853.128Q291.283,508.737,291.708,508.668Zm0,0" transform="translate(-270.635 -473.111)" fill="#fdfdfe"/>
  <path id="Path_40" data-name="Path 40" d="M299.746,507.793c-.135.025-.271.048-.406.071C299.475,507.841,299.61,507.818,299.746,507.793Zm0,0" transform="translate(-278.405 -472.352)" fill="#fdfdfe"/>
  <path id="Path_41" data-name="Path 41" d="M278.609,510.34q-.5.056-1,.1Q278.112,510.4,278.609,510.34Zm0,0" transform="translate(-258.349 -474.56)" fill="#fdfdfe"/>
  <path id="Path_42" data-name="Path 42" d="M286.925,509.738c-.159.021-.32.041-.479.06C286.605,509.779,286.766,509.759,286.925,509.738Zm0,0" transform="translate(-266.432 -474.038)" fill="#fdfdfe"/>
  <path id="Path_43" data-name="Path 43" d="M307.023,506.41l-.359.075Zm0,0" transform="translate(-285.203 -471.152)" fill="#fdfdfe"/>
  <path id="Path_44" data-name="Path 44" d="M324.774,502.113l-.289.08Zm0,0" transform="translate(-301.756 -467.426)" fill="#fdfdfe"/>
  <path id="Path_45" data-name="Path 45" d="M319.374,503.543l-.315.082Zm0,0" transform="translate(-296.718 -468.666)" fill="#fdfdfe"/>
  <path id="Path_46" data-name="Path 46" d="M312.4,505.254c-.111.026-.223.05-.335.075C312.179,505.3,312.291,505.28,312.4,505.254Zm0,0" transform="translate(-290.221 -470.15)" fill="#fdfdfe"/>
  <path id="Path_47" data-name="Path 47" d="M274.018,511.09q-.269.023-.538.04Q273.749,511.113,274.018,511.09Zm0,0" transform="translate(-254.387 -475.211)" fill="#fdfdfe"/>
  <path id="Path_48" data-name="Path 48" d="M36,18A18,18,0,1,0,18,36c.106,0,.211,0,.316,0V21.984H14.449V17.477h3.867V14.16c0-3.846,2.348-5.94,5.779-5.94a31.834,31.834,0,0,1,3.467.177v4.02H25.2c-1.867,0-2.228.887-2.228,2.189v2.87h4.463l-.582,4.507H22.969V35.3A18.01,18.01,0,0,0,36,18Zm0,0" fill="#fdfdfe"/>
  <path id="Path_49" data-name="Path 49" d="M265.956,511.43q-.531.034-1.066.053Q265.425,511.465,265.956,511.43Zm0,0" transform="translate(-246.529 -475.506)" fill="#fdfdfe"/>
  <path id="Path_50" data-name="Path 50" d="M261.068,511.836q-.282.009-.564.014Q260.786,511.845,261.068,511.836Zm0,0" transform="translate(-242.324 -475.858)" fill="#fdfdfe"/>
</svg>
