<svg xmlns="http://www.w3.org/2000/svg" xmlns:xlink="http://www.w3.org/1999/xlink" width="539" height="414" viewBox="0 0 539 414">
  <defs>
    <filter id="Rectangle_40" x="0" y="0" width="539" height="414" filterUnits="userSpaceOnUse">
      <feOffset dy="5" input="SourceAlpha"/>
      <feGaussianBlur stdDeviation="24" result="blur"/>
      <feFlood flood-opacity="0.161"/>
      <feComposite operator="in" in2="blur"/>
      <feComposite in="SourceGraphic"/>
    </filter>
    <filter id="Rectangle_35" x="7" y="60.665" width="183" height="78" filterUnits="userSpaceOnUse">
      <feOffset dy="2" input="SourceAlpha"/>
      <feGaussianBlur stdDeviation="3" result="blur-2"/>
      <feFlood flood-opacity="0.161"/>
      <feComposite operator="in" in2="blur-2"/>
      <feComposite in="SourceGraphic"/>
    </filter>
    <filter id="Rectangle_37" x="89" y="166.665" width="183" height="78" filterUnits="userSpaceOnUse">
      <feOffset dy="3" input="SourceAlpha"/>
      <feGaussianBlur stdDeviation="3" result="blur-3"/>
      <feFlood flood-opacity="0.161"/>
      <feComposite operator="in" in2="blur-3"/>
      <feComposite in="SourceGraphic"/>
    </filter>
    <linearGradient id="linear-gradient" x1="0.012" y1="0.5" x2="0.984" y2="0.5" gradientUnits="objectBoundingBox">
      <stop offset="0" stop-color="#f07229"/>
      <stop offset="1" stop-color="#ff9953"/>
    </linearGradient>
    <filter id="Rectangle_36" x="89" y="249.665" width="429" height="78" filterUnits="userSpaceOnUse">
      <feOffset dy="3" input="SourceAlpha"/>
      <feGaussianBlur stdDeviation="3" result="blur-4"/>
      <feFlood flood-opacity="0.161"/>
      <feComposite operator="in" in2="blur-4"/>
      <feComposite in="SourceGraphic"/>
    </filter>
    <filter id="Ellipse_1" x="372.972" y="75.636" width="80.057" height="80.057" filterUnits="userSpaceOnUse">
      <feOffset dy="3" input="SourceAlpha"/>
      <feGaussianBlur stdDeviation="3" result="blur-5"/>
      <feFlood flood-opacity="0.161"/>
      <feComposite operator="in" in2="blur-5"/>
      <feComposite in="SourceGraphic"/>
    </filter>
    <filter id="Line_1" x="263.5" y="171.165" width="190" height="20" filterUnits="userSpaceOnUse">
      <feOffset dy="3" input="SourceAlpha"/>
      <feGaussianBlur stdDeviation="3" result="blur-6"/>
      <feFlood flood-opacity="0.161"/>
      <feComposite operator="in" in2="blur-6"/>
      <feComposite in="SourceGraphic"/>
    </filter>
    <filter id="Line_2" x="263.5" y="183.165" width="115" height="20" filterUnits="userSpaceOnUse">
      <feOffset dy="3" input="SourceAlpha"/>
      <feGaussianBlur stdDeviation="3" result="blur-7"/>
      <feFlood flood-opacity="0.161"/>
      <feComposite operator="in" in2="blur-7"/>
      <feComposite in="SourceGraphic"/>
    </filter>
    <filter id="Line_5" x="263.5" y="195.165" width="98" height="20" filterUnits="userSpaceOnUse">
      <feOffset dy="3" input="SourceAlpha"/>
      <feGaussianBlur stdDeviation="3" result="blur-8"/>
      <feFlood flood-opacity="0.161"/>
      <feComposite operator="in" in2="blur-8"/>
      <feComposite in="SourceGraphic"/>
    </filter>
    <filter id="Line_3" x="263.5" y="207.165" width="188" height="20" filterUnits="userSpaceOnUse">
      <feOffset dy="3" input="SourceAlpha"/>
      <feGaussianBlur stdDeviation="3" result="blur-9"/>
      <feFlood flood-opacity="0.161"/>
      <feComposite operator="in" in2="blur-9"/>
      <feComposite in="SourceGraphic"/>
    </filter>
    <filter id="Line_4" x="263.5" y="219.165" width="115" height="20" filterUnits="userSpaceOnUse">
      <feOffset dy="3" input="SourceAlpha"/>
      <feGaussianBlur stdDeviation="3" result="blur-10"/>
      <feFlood flood-opacity="0.161"/>
      <feComposite operator="in" in2="blur-10"/>
      <feComposite in="SourceGraphic"/>
    </filter>
  </defs>
  <g id="Group_9" data-name="Group 9" transform="translate(-8317 -1196.335)">
    <path id="Rectangle_44" data-name="Rectangle 44" d="M12,0H396a12,12,0,0,1,12,12V22a0,0,0,0,1,0,0H0a0,0,0,0,1,0,0V12A12,12,0,0,1,12,0Z" transform="translate(8376 1242.335)" fill="#f07229"/>
    <g transform="matrix(1, 0, 0, 1, 8317, 1196.34)" filter="url(#Rectangle_40)">
      <rect id="Rectangle_40-2" data-name="Rectangle 40" width="395" height="270" rx="12" transform="translate(72 67)" fill="#f5f5f5"/>
    </g>
    <rect id="Rectangle_28" data-name="Rectangle 28" width="408" height="293" rx="14" transform="translate(8376 1240.335)" fill="#fff"/>
    <g transform="matrix(1, 0, 0, 1, 8317, 1196.34)" filter="url(#Rectangle_35)">
      <rect id="Rectangle_35-2" data-name="Rectangle 35" width="165" height="60" rx="8" transform="translate(16 67.66)" fill="#f5f5f5"/>
    </g>
    <g transform="matrix(1, 0, 0, 1, 8317, 1196.34)" filter="url(#Rectangle_37)">
      <rect id="Rectangle_37-2" data-name="Rectangle 37" width="165" height="60" rx="8" transform="translate(98 172.66)" fill="#f5f5f5"/>
    </g>
    <g transform="matrix(1, 0, 0, 1, 8317, 1196.34)" filter="url(#Rectangle_36)">
      <rect id="Rectangle_36-2" data-name="Rectangle 36" width="411" height="60" rx="8" transform="translate(98 255.66)" fill="url(#linear-gradient)"/>
    </g>
    <g transform="matrix(1, 0, 0, 1, 8317, 1196.34)" filter="url(#Ellipse_1)">
      <circle id="Ellipse_1-2" data-name="Ellipse 1" cx="30" cy="30" r="30" transform="matrix(1, -0.03, 0.03, 1, 381.97, 83.73)" fill="#f5f5f5"/>
    </g>
    <g transform="matrix(1, 0, 0, 1, 8317, 1196.34)" filter="url(#Line_1)">
      <line id="Line_1-2" data-name="Line 1" x2="170" transform="translate(273.5 178.16)" fill="none" stroke="#9d9da7" stroke-linecap="round" stroke-width="2"/>
    </g>
    <g transform="matrix(1, 0, 0, 1, 8317, 1196.34)" filter="url(#Line_2)">
      <line id="Line_2-2" data-name="Line 2" x2="95" transform="translate(273.5 190.16)" fill="none" stroke="#f7f7f7" stroke-linecap="round" stroke-width="2"/>
    </g>
    <g transform="matrix(1, 0, 0, 1, 8317, 1196.34)" filter="url(#Line_5)">
      <line id="Line_5-2" data-name="Line 5" x2="78" transform="translate(273.5 202.16)" fill="none" stroke="#9d9da7" stroke-linecap="round" stroke-width="2"/>
    </g>
    <g transform="matrix(1, 0, 0, 1, 8317, 1196.34)" filter="url(#Line_3)">
      <line id="Line_3-2" data-name="Line 3" x2="168" transform="translate(273.5 214.16)" fill="none" stroke="#f7f7f7" stroke-linecap="round" stroke-width="2"/>
    </g>
    <g transform="matrix(1, 0, 0, 1, 8317, 1196.34)" filter="url(#Line_4)">
      <line id="Line_4-2" data-name="Line 4" x2="95" transform="translate(273.5 226.16)" fill="none" stroke="#9d9da7" stroke-linecap="round" stroke-width="2"/>
    </g>
  </g>
</svg>
