<svg id="instagram" xmlns="http://www.w3.org/2000/svg" width="35.944" height="35.944" viewBox="0 0 35.944 35.944">
  <path id="Path_51" data-name="Path 51" d="M213.88,210.44a3.44,3.44,0,1,1-3.44-3.44A3.44,3.44,0,0,1,213.88,210.44Zm0,0" transform="translate(-192.468 -192.468)" fill="#fdfdfe"/>
  <path id="Path_52" data-name="Path 52" d="M151.99,137.863a3.418,3.418,0,0,0-1.959-1.959,5.71,5.71,0,0,0-1.916-.355c-1.088-.05-1.415-.06-4.17-.06s-3.082.01-4.17.06a5.713,5.713,0,0,0-1.916.355,3.419,3.419,0,0,0-1.959,1.959,5.712,5.712,0,0,0-.355,1.916c-.05,1.088-.06,1.414-.06,4.17s.011,3.082.06,4.17a5.71,5.71,0,0,0,.355,1.916,3.417,3.417,0,0,0,1.959,1.959,5.7,5.7,0,0,0,1.916.355c1.088.05,1.414.06,4.17.06s3.082-.01,4.17-.06a5.7,5.7,0,0,0,1.916-.355,3.417,3.417,0,0,0,1.959-1.959,5.715,5.715,0,0,0,.355-1.916c.05-1.088.06-1.415.06-4.17s-.01-3.082-.06-4.17A5.7,5.7,0,0,0,151.99,137.863Zm-8.045,11.385a5.3,5.3,0,1,1,5.3-5.3A5.3,5.3,0,0,1,143.945,149.248Zm5.509-9.57a1.238,1.238,0,1,1,1.238-1.238A1.238,1.238,0,0,1,149.454,139.679Zm0,0" transform="translate(-125.973 -125.977)" fill="#fdfdfe"/>
  <path id="Path_53" data-name="Path 53" d="M17.972,0A17.972,17.972,0,1,0,35.944,17.972,17.974,17.974,0,0,0,17.972,0ZM28.229,22.227a7.572,7.572,0,0,1-.48,2.505,5.277,5.277,0,0,1-3.018,3.018,7.577,7.577,0,0,1-2.5.48c-1.1.05-1.452.062-4.255.062s-3.154-.012-4.255-.062a7.577,7.577,0,0,1-2.5-.48,5.277,5.277,0,0,1-3.018-3.018,7.57,7.57,0,0,1-.48-2.5c-.051-1.1-.063-1.452-.063-4.255s.012-3.154.062-4.255a7.572,7.572,0,0,1,.479-2.505,5.28,5.28,0,0,1,3.018-3.018,7.578,7.578,0,0,1,2.505-.48c1.1-.05,1.452-.062,4.255-.062s3.154.012,4.255.063a7.58,7.58,0,0,1,2.505.479,5.278,5.278,0,0,1,3.018,3.018,7.571,7.571,0,0,1,.48,2.505c.05,1.1.062,1.452.062,4.255S28.28,21.126,28.229,22.227Zm0,0" fill="#fdfdfe"/>
</svg>
