<svg xmlns="http://www.w3.org/2000/svg" xmlns:xlink="http://www.w3.org/1999/xlink" width="58.313" height="45" viewBox="0 0 58.313 45">
  <defs>
    <linearGradient id="linear-gradient" x1="0.5" x2="0.5" y2="1" gradientUnits="objectBoundingBox">
      <stop offset="0" stop-color="#f07229"/>
      <stop offset="1" stop-color="#ff9953"/>
    </linearGradient>
  </defs>
  <g id="noun_visualization_1246402" transform="translate(0 -22.831)">
    <g id="Group_19" data-name="Group 19" transform="translate(0 22.831)">
      <g id="Group_15" data-name="Group 15" transform="translate(0 6.508)">
        <path id="Path_26" data-name="Path 26" d="M61.143,77.136A15.992,15.992,0,1,1,77.135,61.144,16.01,16.01,0,0,1,61.143,77.136Zm0-30.115A14.123,14.123,0,1,0,75.266,61.144,14.139,14.139,0,0,0,61.143,47.021Z" transform="translate(-31.986 -45.152)" fill="url(#linear-gradient)"/>
        <path id="Path_27" data-name="Path 27" d="M86.124,91.835a5.712,5.712,0,1,1,5.711-5.712A5.717,5.717,0,0,1,86.124,91.835Zm0-9.555a3.843,3.843,0,1,0,3.842,3.843A3.846,3.846,0,0,0,86.124,82.28Z" transform="translate(-56.967 -70.131)" fill="url(#linear-gradient)"/>
        <path id="Path_28" data-name="Path 28" d="M29.156,77.136A34.516,34.516,0,0,1,.343,61.661L0,61.144l.343-.517a34.561,34.561,0,0,1,57.626,0l.344.517-.344.517A34.515,34.515,0,0,1,29.156,77.136ZM2.25,61.144a32.691,32.691,0,0,0,53.812,0,32.691,32.691,0,0,0-53.812,0Z" transform="translate(0 -45.152)" fill="url(#linear-gradient)"/>
      </g>
      <g id="Group_16" data-name="Group 16" transform="translate(6.656 0)">
        <path id="Path_29" data-name="Path 29" d="M159.18,30.235h-1.869V24.7h-5.535V22.831h7.4Z" transform="translate(-114.18 -22.831)" fill="url(#linear-gradient)"/>
        <path id="Path_30" data-name="Path 30" d="M24.7,30.235H22.83v-7.4h7.4V24.7H24.7Z" transform="translate(-22.83 -22.831)" fill="url(#linear-gradient)"/>
        <path id="Path_31" data-name="Path 31" d="M159.18,159.178h-7.4v-1.869h5.535v-5.536h1.869Z" transform="translate(-114.18 -114.178)" fill="url(#linear-gradient)"/>
        <path id="Path_32" data-name="Path 32" d="M30.234,159.178h-7.4v-7.4H24.7v5.536h5.535Z" transform="translate(-22.83 -114.178)" fill="url(#linear-gradient)"/>
      </g>
      <g id="Group_17" data-name="Group 17" transform="translate(23.766 0)">
        <rect id="Rectangle_60" data-name="Rectangle 60" width="2.156" height="1.869" fill="url(#linear-gradient)"/>
        <rect id="Rectangle_61" data-name="Rectangle 61" width="2.158" height="1.869" transform="translate(4.311)" fill="url(#linear-gradient)"/>
        <rect id="Rectangle_62" data-name="Rectangle 62" width="2.156" height="1.869" transform="translate(8.625)" fill="url(#linear-gradient)"/>
      </g>
      <g id="Group_18" data-name="Group 18" transform="translate(23.766 43.131)">
        <rect id="Rectangle_63" data-name="Rectangle 63" width="2.156" height="1.869" fill="url(#linear-gradient)"/>
        <rect id="Rectangle_64" data-name="Rectangle 64" width="2.158" height="1.869" transform="translate(4.311)" fill="url(#linear-gradient)"/>
        <rect id="Rectangle_65" data-name="Rectangle 65" width="2.156" height="1.869" transform="translate(8.625)" fill="url(#linear-gradient)"/>
      </g>
    </g>
  </g>
</svg>
